<svg width="34" height="40" viewBox="0 0 34 40" fill="none" xmlns="http://www.w3.org/2000/svg">
<g filter="url(#filter0_d_1_243)">
<path d="M22.9997 18.7501V11.8329C23.0036 10.8362 22.8097 9.84862 22.4292 8.92741C22.0487 8.00619 21.4891 7.16964 20.783 6.46622L19.5288 5.21672C18.8254 4.51058 17.9889 3.95105 17.0677 3.57055C16.1464 3.19005 15.1589 2.99614 14.1622 3.00006H10.7497C9.04844 3.00191 7.41741 3.67855 6.21445 4.8815C5.0115 6.08446 4.33486 7.71549 4.33301 9.41673V18.7501C4.33486 20.4513 5.0115 22.0824 6.21445 23.2853C7.41741 24.4883 9.04844 25.1649 10.7497 25.1668H16.583C18.2842 25.1649 19.9153 24.4883 21.1182 23.2853C22.3212 22.0824 22.9978 20.4513 22.9997 18.7501ZM7.83301 18.7501V9.41673C7.83301 8.64318 8.1403 7.90131 8.68728 7.35433C9.23426 6.80735 9.97613 6.50006 10.7497 6.50006H14.1668C14.3903 6.50357 14.6131 6.52542 14.833 6.56539V8.83339C14.833 9.45223 15.0788 10.0458 15.5164 10.4833C15.954 10.9209 16.5475 11.1668 17.1663 11.1668H19.4343C19.4743 11.3867 19.4962 11.6095 19.4997 11.8329V18.7501C19.4997 19.5236 19.1924 20.2655 18.6454 20.8125C18.0984 21.3595 17.3566 21.6668 16.583 21.6668H10.7497C9.97613 21.6668 9.23426 21.3595 8.68728 20.8125C8.1403 20.2655 7.83301 19.5236 7.83301 18.7501ZM28.833 12.9168V24.5834C28.8312 26.2847 28.1545 27.9157 26.9516 29.1187C25.7486 30.3216 24.1176 30.9982 22.4163 31.0001H13.083C12.6189 31.0001 12.1738 30.8157 11.8456 30.4875C11.5174 30.1593 11.333 29.7142 11.333 29.2501C11.333 28.786 11.5174 28.3409 11.8456 28.0127C12.1738 27.6845 12.6189 27.5001 13.083 27.5001H22.4163C23.1899 27.5001 23.9318 27.1928 24.4787 26.6458C25.0257 26.0988 25.333 25.357 25.333 24.5834V12.9168C25.333 12.4526 25.5174 12.0075 25.8456 11.6793C26.1738 11.3511 26.6189 11.1668 27.083 11.1668C27.5471 11.1668 27.9922 11.3511 28.3204 11.6793C28.6486 12.0075 28.833 12.4526 28.833 12.9168Z" fill="white"/>
<path d="M27.2001 12.3334V24.1334C27.2001 26.8948 24.9615 29.1334 22.2001 29.1334H12.7334" stroke="#FF3969" stroke-width="4" stroke-linecap="round"/>
</g>
<defs>
<filter id="filter0_d_1_243" x="-2" y="0" width="38" height="46" filterUnits="userSpaceOnUse" color-interpolation-filters="sRGB">
<feFlood flood-opacity="0" result="BackgroundImageFix"/>
<feColorMatrix in="SourceAlpha" type="matrix" values="0 0 0 0 0 0 0 0 0 0 0 0 0 0 0 0 0 0 127 0" result="hardAlpha"/>
<feOffset dy="4"/>
<feGaussianBlur stdDeviation="2"/>
<feComposite in2="hardAlpha" operator="out"/>
<feColorMatrix type="matrix" values="0 0 0 0 0 0 0 0 0 0 0 0 0 0 0 0 0 0 0.25 0"/>
<feBlend mode="normal" in2="BackgroundImageFix" result="effect1_dropShadow_1_243"/>
<feBlend mode="normal" in="SourceGraphic" in2="effect1_dropShadow_1_243" result="shape"/>
</filter>
</defs>
</svg>
