<svg width="34" height="34" viewBox="0 0 34 34" fill="none" xmlns="http://www.w3.org/2000/svg">
<path d="M7.09245 28.6534H24.6087L23.7722 25.9447L25.7733 27.6621L27.6074 29.3057L30.9487 32.098V5.65586C30.8652 4.01221 29.45 2.61548 27.6958 2.61548L7.09859 2.61916C5.34561 2.61916 3.92308 4.01835 3.92308 5.662V25.6118C3.92308 27.3452 5.34315 28.6534 7.09245 28.6534ZM20.05 9.59669L20.0095 9.61143L20.0242 9.59669H20.05ZM10.6758 11.1556C12.9275 9.51684 15.0146 9.59546 15.0146 9.59546L15.1829 9.7613C12.4276 10.4185 11.1782 11.6494 11.1782 11.6494C11.1782 11.6494 11.5124 11.486 12.0959 11.2367C15.807 9.77727 19.8596 9.88292 23.6112 11.7305C23.6112 11.7305 22.3595 10.5794 19.7736 9.84238L20.0021 9.61757C20.3596 9.6188 22.2514 9.68514 24.2758 11.1654C24.2758 11.1654 26.5411 15.035 26.5411 19.789C26.4661 19.6981 25.1357 21.8356 21.7121 21.9093C21.7121 21.9093 21.1323 21.2533 20.7195 20.6809C22.7219 20.106 23.4712 18.9562 23.4712 18.9562C22.814 19.3701 22.2145 19.6158 21.7281 19.8615C20.9799 20.1907 20.2306 20.3529 19.4825 20.5187C15.9397 21.0936 13.9508 20.1318 12.0713 19.3689L11.4288 19.0421C11.4288 19.0421 12.177 20.192 14.0995 20.7669C13.5946 21.343 13.0946 21.9978 13.0946 21.9978C9.67217 21.9167 8.42408 19.7792 8.42408 19.7792C8.42408 15.0178 10.6758 11.1556 10.6758 11.1556Z" fill="white"/>
<path d="M20.2711 18.3039C21.1445 18.3039 21.8558 17.5668 21.8558 16.6578C21.8558 15.7549 21.1482 15.0178 20.2711 15.0178V15.0215C19.4014 15.0215 18.6889 15.7561 18.6864 16.6652C18.6864 17.5668 19.3977 18.3039 20.2711 18.3039Z" fill="white"/>
<path d="M14.5981 18.3039C15.4715 18.3039 16.1828 17.5668 16.1828 16.6578C16.1828 15.7549 15.4765 15.0178 14.603 15.0178L14.5981 15.0215C13.7247 15.0215 13.0134 15.7561 13.0134 16.6652C13.0134 17.5668 13.7247 18.3039 14.5981 18.3039Z" fill="white"/>
</svg>
