<svg width="45" height="48" viewBox="0 0 45 48" fill="none" xmlns="http://www.w3.org/2000/svg">
<g clip-path="url(#clip0_1_396)">
<path d="M2.5937 16.9616L7.86991 8.86188L10.4256 4.94429C11.3261 3.56494 12.3344 2.21079 13.1144 0.762157C13.3998 0.239391 12.8671 0.018947 12.4105 5.18863e-05C11.8144 -0.0251417 11.0597 0.220495 10.6919 0.705471C9.68361 2.02813 8.84018 3.49566 7.93333 4.8876L5.37766 8.8052L0.0951081 16.9049C-0.247338 17.4277 0.393163 17.667 0.824392 17.6859C1.40148 17.7111 2.25759 17.4718 2.5937 16.9553V16.9616Z" fill="#FF3969"/>
<path d="M12.7085 25.8172C23.1024 22.4349 33.5343 19.1472 43.8902 15.6453C44.2516 15.5256 45.1268 15.217 44.9873 14.6816C44.8477 14.1714 43.8965 14.2848 43.5541 14.3919C33.1221 17.6544 22.7536 21.1249 12.3597 24.5134C11.9792 24.6394 11.066 24.9606 11.2182 25.5211C11.3578 26.0502 12.3597 25.9431 12.7149 25.8235L12.7085 25.8172Z" fill="#FF3969"/>
<path d="M10.5904 37.6265L18.6886 42.7597L22.6712 45.2853C24.041 46.1545 25.3917 47.1056 26.8186 47.874C27.3069 48.1322 28.0615 47.937 28.5118 47.7039C28.7464 47.5843 29.4884 47.0678 29.0572 46.7466C27.7508 45.7703 26.3112 44.9515 24.9351 44.0823L20.9526 41.5567L12.7212 36.3353C11.9856 35.8693 9.50601 36.94 10.5841 37.6265H10.5904Z" fill="#FF3969"/>
</g>
<defs>
<clipPath id="clip0_1_396">
<rect width="45" height="48" fill="white"/>
</clipPath>
</defs>
</svg>
