<svg width="145" height="123" viewBox="0 0 145 123" fill="none" xmlns="http://www.w3.org/2000/svg">
<g filter="url(#filter0_b_1_147)">
<path d="M145 94.5665C145 110.27 132.27 123 116.567 123L73.8982 123C69.5361 123 66 119.464 66 115.102L66 61.7964C66 53.0723 73.0723 46 81.7964 46L137.102 46C141.464 46 145 49.5361 145 53.8982L145 94.5665Z" fill="#FF3969" fill-opacity="0.49"/>
</g>
<path d="M37.007 79.417L33.9804 78L16 104H36.0663L38 102.767V80.3069L37.007 79.417Z" fill="#407093"/>
<path d="M34 78.1798L27.2771 75H26.0101L7 102.769L8.13174 104H16.3241L34 78.1798Z" fill="#365E7D"/>
<path d="M40.8809 103H15.1191C13.9488 103 13 103.959 13 105.143V107.858C13 109.041 13.9486 110 15.1187 110H40.8809C42.0512 110 43 109.041 43 107.858V105.143C43 103.959 42.0512 103 40.8809 103Z" fill="#4A80AA"/>
<path d="M13.8493 107.858V105.143C13.8493 103.959 14.8122 103 16 103H2.15071C0.96295 103 0 103.959 0 105.143V107.858C0 109.041 0.96295 110 2.15071 110H15.9998C14.812 110 13.8493 109.041 13.8493 107.858Z" fill="#407093"/>
<path d="M33.2232 63C32.4416 64.6335 32 66.4649 32 68.4024C32 73.6969 35.2723 78.2134 39.8779 80C41.8552 79.3724 43.6122 78.2401 45 76.7494V74.0441L33.2232 63Z" fill="#4A80AA"/>
<path d="M31.912 67.8428C31.912 65.9425 32.3474 64.1462 33.1183 62.5447L29.3237 59H27.784C25.4556 61.2167 24 64.3572 24 67.8426C24 74.557 29.3933 80 36.0465 80C37.4323 80 38.7613 79.76 40 79.325C35.292 77.6721 31.912 73.1572 31.912 67.8428Z" fill="#407093"/>
<path d="M103.569 1.43069C101.662 -0.476898 98.5689 -0.476898 96.6615 1.43069L92 6.09222V6.68303L97.8182 12.7483L98.9078 13L103.569 8.33847C105.477 6.43109 105.477 3.33829 103.569 1.43069Z" fill="#FFD086"/>
<path d="M105 3.77462C104.794 2.92154 104.364 2.11142 103.697 1.44533C101.768 -0.481777 98.6415 -0.481777 96.713 1.44533L92 6.15454V6.7514L95.1188 10C96.9782 8.06669 98.8243 6.15882 99.7737 5.21022C101.356 3.62909 103.668 3.61691 105 3.77462Z" fill="#FFC365"/>
<path d="M87.3428 14C87.2885 14 87.2335 13.9971 87.1783 13.9916L32.4966 8.42412C31.5846 8.33128 30.9183 7.49148 31.0081 6.54817C31.0979 5.60486 31.9102 4.9161 32.8217 5.00827L87.5034 10.5755C88.4151 10.6683 89.0817 11.5081 88.9919 12.4514C88.9075 13.3379 88.1858 14 87.3428 14Z" fill="#365E7D"/>
<path d="M48.6447 25C47.9148 25 47.2481 24.4904 47.0543 23.7209C46.8236 22.8055 47.3494 21.8688 48.2283 21.6286L86.9366 11.0564C87.8155 10.8166 88.7153 11.3637 88.9457 12.2791C89.1764 13.1943 88.6508 14.131 87.7717 14.3712L49.0634 24.9435C48.9232 24.9816 48.7827 25 48.6447 25Z" fill="#407093"/>
<path d="M98.2752 74C97.3992 74 96.6498 73.3596 96.5626 72.5029L91.0083 17.819C90.9158 16.9078 91.6083 16.0966 92.5553 16.0073C93.5023 15.9224 94.3449 16.585 94.4374 17.4965L99.9917 72.1804C100.084 73.0916 99.3917 73.9028 98.4447 73.9921C98.3878 73.9972 98.3312 74 98.2752 74Z" fill="#365E7D"/>
<path d="M82.696 59C82.5524 59 82.4063 58.9815 82.2607 58.9435C81.356 58.7058 80.8171 57.7868 81.0571 56.8906L91.6672 17.2488C91.9069 16.3523 92.8344 15.8194 93.7393 16.0562C94.644 16.2939 95.1829 17.2129 94.9429 18.1091L84.3328 57.751C84.1317 58.5031 83.4459 59 82.696 59Z" fill="#407093"/>
<path d="M87 11L91.9527 6.05325L99.0281 13.12L94.0753 18.0668L87 11Z" fill="#FFC365"/>
<path d="M90.4898 14C91.5974 12.8544 93.3271 11.0675 95 9.34951L91.6093 6L87 10.5528L90.4898 14Z" fill="#FFA90F"/>
<path d="M94.3997 20C93.9903 20 93.5807 19.8436 93.2684 19.5314L84.4687 10.7316C83.8438 10.1065 83.8438 9.09366 84.4687 8.46844C85.0935 7.84385 86.1066 7.84385 86.7316 8.46844L95.5313 17.2682C96.1562 17.8932 96.1562 18.9061 95.5313 19.5314C95.2188 19.8439 94.8094 20 94.3997 20Z" fill="#4A80AA"/>
<path d="M95.7684 76.8296L40.5021 21C33.1749 37.5664 31.9026 55.3503 37.388 70.6858C52.5371 84.3716 75.1669 86.4732 96 77.8702L95.7684 76.8296Z" fill="#B5DCFF"/>
<path d="M41 20.7588L28.3736 8L27.1083 8.12505C18.2124 29.7386 20.8099 53.2897 35.8866 68.3936C36.7998 69.3084 37.7447 70.1765 38.7176 71C32.3621 55.7216 33.395 37.55 41 20.7588Z" fill="#8BCAFF"/>
<path d="M101.371 73.4255L44.7822 17C44.2253 17.0856 43.6892 17.338 43.2604 17.7656L40.799 20.2201C40.2704 20.7471 40.0075 21.4355 40 22.1264L96.4093 78.3728C97.248 79.2091 98.6078 79.2091 99.4465 78.3728L101.371 76.4539C102.21 75.6178 102.21 74.2618 101.371 73.4255Z" fill="#DBEDFF"/>
<path d="M40.9452 20.0195L43.3927 17.5959C43.8434 17.1495 44.4126 16.894 45 16.8249L31.6779 3.63258C30.8261 2.78914 29.4452 2.78914 28.5933 3.63258L26.6388 5.568C25.7871 6.41144 25.7871 7.77886 26.6388 8.6223L40.1482 22C40.1305 21.2852 40.3944 20.5649 40.9452 20.0195Z" fill="#B5DCFF"/>
<defs>
<filter id="filter0_b_1_147" x="-84" y="-104" width="379" height="377" filterUnits="userSpaceOnUse" color-interpolation-filters="sRGB">
<feFlood flood-opacity="0" result="BackgroundImageFix"/>
<feGaussianBlur in="BackgroundImageFix" stdDeviation="75"/>
<feComposite in2="SourceAlpha" operator="in" result="effect1_backgroundBlur_1_147"/>
<feBlend mode="normal" in="SourceGraphic" in2="effect1_backgroundBlur_1_147" result="shape"/>
</filter>
</defs>
</svg>
