<svg width="122" height="104" viewBox="0 0 122 104" fill="none" xmlns="http://www.w3.org/2000/svg">
<g filter="url(#filter0_b_1_185)">
<path d="M43 75.5665C43 91.2699 55.7301 104 71.4335 104L114.102 104C118.464 104 122 100.464 122 96.1018L122 42.7964C122 34.0723 114.928 27 106.204 27L50.8982 27C46.5361 27 43 30.5361 43 34.8982L43 75.5665Z" fill="#FF3969" fill-opacity="0.49"/>
</g>
<path d="M79 44.0888V35.0704C79 33.3024 77.5668 31.8693 75.7989 31.8693H72.3497C70.9705 31.8693 69.7468 30.9856 69.3133 29.6764C68.8303 28.2179 68.2436 26.8067 67.5619 25.4516C66.941 24.2174 67.1787 22.7254 68.1555 21.7484L70.5959 19.308C71.846 18.0578 71.846 16.0311 70.5959 14.7809L64.2189 8.40393C62.9687 7.15379 60.942 7.15379 59.6918 8.40393L57.2514 10.8443C56.2744 11.8213 54.7824 12.0588 53.5481 11.4379C52.193 10.7562 50.7819 10.1695 49.3234 9.68656C48.0142 9.25302 47.1305 8.02931 47.1305 6.65016V3.20109C47.1305 1.43315 45.6974 0 43.9294 0H34.911C33.143 0 31.7099 1.43315 31.7099 3.20109V6.65032C31.7099 8.02947 30.8262 9.25317 29.517 9.68672C28.0585 10.1696 26.6474 10.7564 25.2923 11.4381C24.058 12.0589 22.566 11.8213 21.589 10.8445L19.1486 8.40409C17.8984 7.15394 15.8717 7.15394 14.6215 8.40409L8.24483 14.7811C6.99469 16.0312 6.99469 18.058 8.24483 19.3081L10.6852 21.7485C11.6621 22.7255 11.8997 24.2176 11.2788 25.4518C10.5971 26.8069 10.0104 28.2181 9.52746 29.6765C9.22102 30.6018 8.52005 31.3144 7.64851 31.6528C7.28679 31.7933 7.05489 32.0285 6.65033 32.0285H3.20109C1.43315 32.0285 0 33.4617 0 35.2296V43.9295C0 45.6974 1.43315 47.1306 3.20109 47.1306H6.65033C8.02949 47.1306 9.25319 48.1735 9.68674 49.4827C10.1697 50.9412 10.7564 52.3522 11.4381 53.7075C12.059 54.9417 11.8213 56.4338 10.8445 57.4107L8.56338 59.8511C7.31323 61.1013 7.31323 63.128 8.56338 64.3782L14.6218 70.4366C15.872 71.6868 17.8988 71.6868 19.1489 70.4366L21.5893 67.9962C22.5661 67.0193 24.0584 66.7818 25.2926 67.4026C26.6477 68.0843 28.3774 68.8304 29.8359 69.3133C31.1451 69.7468 32.0288 70.9705 32.0288 72.3497V75.7989C32.0288 77.5668 33.4619 79 35.2299 79H43.7705C45.5384 79 46.9716 77.5668 46.9716 75.7989V72.3497C46.9716 71.9451 47.2068 71.7132 47.3473 71.3515C47.6857 70.48 48.3985 69.779 49.3236 69.4726C50.782 68.9896 52.1932 68.4029 53.5483 67.7212C54.7825 67.1003 56.2746 67.338 57.2516 68.3148L59.692 70.7552C60.9421 72.0053 62.9689 72.0053 64.219 70.7552L70.5961 64.3782C71.8462 63.128 71.8462 61.1013 70.5961 59.8511L68.1557 57.4107C67.1788 56.4338 66.9412 54.9417 67.562 53.7075C68.2437 52.3524 68.8305 50.9412 69.3134 49.4827C69.747 48.1735 70.9707 47.2898 72.3498 47.2898H75.7991C77.5668 47.2898 79 45.8567 79 44.0888Z" fill="#B6C4CF"/>
<path d="M47 71.2757C46.8613 71.6333 46.7857 72.021 46.7857 72.4212V75.8327C46.7857 77.5818 45.3675 79 43.6184 79H34.6965C32.9474 79 31.5293 77.5818 31.5293 75.8327V72.4212C31.5293 71.0566 30.6547 69.8449 29.3594 69.4163C27.9176 68.9388 26.5215 68.3589 25.1805 67.6845C23.9593 67.07 22.4829 67.3048 21.5169 68.2707L19.1029 70.6847C17.8659 71.9217 15.86 71.9217 14.623 70.6847L8.31368 64.377C7.07828 63.14 7.07828 61.1341 8.31368 59.8971L10.7293 57.4831C11.6952 56.5171 11.93 55.0407 11.3155 53.8195C10.6411 52.4785 10.0612 51.0824 9.58373 49.6406C9.15513 48.3453 7.94337 47.4707 6.57877 47.4707H3.16726C1.41818 47.4707 0 46.0526 0 44.3035V35.3816C0 33.6325 1.41818 32.2143 3.16726 32.2143H6.57877C6.97901 32.2143 7.36665 32.1387 7.72434 32C7.72119 32.197 7.71962 32.3955 7.71962 32.5941C7.71962 53.9597 25.0403 71.2804 46.4059 71.2804C46.6045 71.2804 46.803 71.2788 47 71.2757Z" fill="#9FACBA"/>
<path d="M39 65C53.3594 65 65 53.3594 65 39C65 24.6406 53.3594 13 39 13C24.6406 13 13 24.6406 13 39C13 53.3594 24.6406 65 39 65Z" fill="#9FACBA"/>
<path d="M39.5 60C50.8218 60 60 50.8218 60 39.5C60 28.1782 50.8218 19 39.5 19C28.1782 19 19 28.1782 19 39.5C19 50.8218 28.1782 60 39.5 60Z" fill="#F8F7F7"/>
<defs>
<filter id="filter0_b_1_185" x="-107" y="-123" width="379" height="377" filterUnits="userSpaceOnUse" color-interpolation-filters="sRGB">
<feFlood flood-opacity="0" result="BackgroundImageFix"/>
<feGaussianBlur in="BackgroundImageFix" stdDeviation="75"/>
<feComposite in2="SourceAlpha" operator="in" result="effect1_backgroundBlur_1_185"/>
<feBlend mode="normal" in="SourceGraphic" in2="effect1_backgroundBlur_1_185" result="shape"/>
</filter>
</defs>
</svg>
