<svg width="211" height="228" viewBox="0 0 211 228" fill="none" xmlns="http://www.w3.org/2000/svg">
<path d="M198.586 12.6104V14.4795H209.307V12.6104H198.586ZM202.947 8.04492V19.4316H204.935V8.04492H202.947Z" fill="#FF3969"/>
<path d="M198.586 60.6826V62.5518H209.307V60.6826H198.586ZM202.947 56.1172V67.5039H204.935V56.1172H202.947Z" fill="#E5E5E5"/>
<path d="M198.586 108.755V110.624H209.307V108.755H198.586ZM202.947 104.189V115.576H204.935V104.189H202.947Z" fill="#E5E5E5"/>
<path d="M150.514 12.6104V14.4795H161.234V12.6104H150.514ZM154.875 8.04492V19.4316H156.862V8.04492H154.875Z" fill="#E5E5E5"/>
<path d="M150.514 60.6826V62.5518H161.234V60.6826H150.514ZM154.875 56.1172V67.5039H156.862V56.1172H154.875Z" fill="#E5E5E5"/>
<path d="M150.514 108.755V110.624H161.234V108.755H150.514ZM154.875 104.189V115.576H156.862V104.189H154.875Z" fill="#E5E5E5"/>
<path d="M150.514 156.827V158.696H161.234V156.827H150.514ZM154.875 152.262V163.649H156.862V152.262H154.875Z" fill="#E5E5E5"/>
<path d="M102.441 12.6104V14.4795H113.162V12.6104H102.441ZM106.803 8.04492V19.4316H108.79V8.04492H106.803Z" fill="#E5E5E5"/>
<path d="M102.441 60.6826V62.5518H113.162V60.6826H102.441ZM106.803 56.1172V67.5039H108.79V56.1172H106.803Z" fill="#E5E5E5"/>
<path d="M102.441 108.755V110.624H113.162V108.755H102.441ZM106.803 104.189V115.576H108.79V104.189H106.803Z" fill="#FF3969"/>
<path d="M102.441 156.827V158.696H113.162V156.827H102.441ZM106.803 152.262V163.649H108.79V152.262H106.803Z" fill="#E5E5E5"/>
<path d="M102.441 204.9V206.769H113.162V204.9H102.441ZM106.803 200.334V211.721H108.79V200.334H106.803Z" fill="#E5E5E5"/>
<path d="M54.369 12.6104V14.4795H65.0897V12.6104H54.369ZM58.7303 8.04492V19.4316H60.7177V8.04492H58.7303Z" fill="#E5E5E5"/>
<path d="M54.369 60.6826V62.5518H65.0897V60.6826H54.369ZM58.7303 56.1172V67.5039H60.7177V56.1172H58.7303Z" fill="#E5E5E5"/>
<path d="M54.369 108.755V110.624H65.0897V108.755H54.369ZM58.7303 104.189V115.576H60.7177V104.189H58.7303Z" fill="#E5E5E5"/>
<path d="M54.369 156.827V158.696H65.0897V156.827H54.369ZM58.7303 152.262V163.649H60.7177V152.262H58.7303Z" fill="#E5E5E5"/>
<path d="M54.369 204.9V206.769H65.0897V204.9H54.369ZM58.7303 200.334V211.721H60.7177V200.334H58.7303Z" fill="#E5E5E5"/>
<path d="M6.29675 12.6104V14.4795H17.0175V12.6104H6.29675ZM10.6581 8.04492V19.4316H12.6454V8.04492H10.6581Z" fill="#E5E5E5"/>
<path d="M6.29675 60.6826V62.5518H17.0175V60.6826H6.29675ZM10.6581 56.1172V67.5039H12.6454V56.1172H10.6581Z" fill="#E5E5E5"/>
<path d="M6.29675 108.755V110.624H17.0175V108.755H6.29675ZM10.6581 104.189V115.576H12.6454V104.189H10.6581Z" fill="#E5E5E5"/>
<path d="M6.29675 156.827V158.696H17.0175V156.827H6.29675ZM10.6581 152.262V163.649H12.6454V152.262H10.6581Z" fill="#E5E5E5"/>
<path d="M6.29675 204.9V206.769H17.0175V204.9H6.29675ZM10.6581 200.334V211.721H12.6454V200.334H10.6581Z" fill="#E5E5E5"/>
</svg>
