<svg width="211" height="228" viewBox="0 0 211 228" fill="none" xmlns="http://www.w3.org/2000/svg">
<path d="M11.9863 12.6104V14.4795H1.26562V12.6104H11.9863ZM7.625 8.04492V19.4316H5.6377V8.04492H7.625Z" fill="#FF3969"/>
<path d="M11.9863 60.6826V62.5518H1.26562V60.6826H11.9863ZM7.625 56.1172V67.5039H5.6377V56.1172H7.625Z" fill="#E5E5E5"/>
<path d="M11.9863 108.755V110.624H1.26562V108.755H11.9863ZM7.625 104.189V115.576H5.6377V104.189H7.625Z" fill="#E5E5E5"/>
<path d="M60.0586 12.6104V14.4795H49.3379V12.6104H60.0586ZM55.6973 8.04492V19.4316H53.71V8.04492H55.6973Z" fill="#E5E5E5"/>
<path d="M60.0586 60.6826V62.5518H49.3379V60.6826H60.0586ZM55.6973 56.1172V67.5039H53.71V56.1172H55.6973Z" fill="#E5E5E5"/>
<path d="M60.0586 108.755V110.624H49.3379V108.755H60.0586ZM55.6973 104.189V115.576H53.71V104.189H55.6973Z" fill="#E5E5E5"/>
<path d="M60.0586 156.827V158.696H49.3379V156.827H60.0586ZM55.6973 152.262V163.648H53.71V152.262H55.6973Z" fill="#E5E5E5"/>
<path d="M108.131 12.6104V14.4795H97.4102V12.6104H108.131ZM103.77 8.04492V19.4316H101.782V8.04492H103.77Z" fill="#E5E5E5"/>
<path d="M108.131 60.6826V62.5518H97.4102V60.6826H108.131ZM103.77 56.1172V67.5039H101.782V56.1172H103.77Z" fill="#E5E5E5"/>
<path d="M108.131 108.755V110.624H97.4102V108.755H108.131ZM103.77 104.189V115.576H101.782V104.189H103.77Z" fill="#FF3969"/>
<path d="M108.131 156.827V158.696H97.4102V156.827H108.131ZM103.77 152.262V163.648H101.782V152.262H103.77Z" fill="#E5E5E5"/>
<path d="M108.131 204.899V206.769H97.4102V204.899H108.131ZM103.77 200.334V211.721H101.782V200.334H103.77Z" fill="#E5E5E5"/>
<path d="M156.203 12.6104V14.4795H145.482V12.6104H156.203ZM151.842 8.04492V19.4316H149.855V8.04492H151.842Z" fill="#E5E5E5"/>
<path d="M156.203 60.6826V62.5518H145.482V60.6826H156.203ZM151.842 56.1172V67.5039H149.855V56.1172H151.842Z" fill="#E5E5E5"/>
<path d="M156.203 108.755V110.624H145.482V108.755H156.203ZM151.842 104.189V115.576H149.855V104.189H151.842Z" fill="#E5E5E5"/>
<path d="M156.203 156.827V158.696H145.482V156.827H156.203ZM151.842 152.262V163.648H149.855V152.262H151.842Z" fill="#E5E5E5"/>
<path d="M156.203 204.899V206.769H145.482V204.899H156.203ZM151.842 200.334V211.721H149.855V200.334H151.842Z" fill="#E5E5E5"/>
<path d="M204.275 12.6104V14.4795H193.555V12.6104H204.275ZM199.914 8.04492V19.4316H197.927V8.04492H199.914Z" fill="#E5E5E5"/>
<path d="M204.275 60.6826V62.5518H193.555V60.6826H204.275ZM199.914 56.1172V67.5039H197.927V56.1172H199.914Z" fill="#E5E5E5"/>
<path d="M204.275 108.755V110.624H193.555V108.755H204.275ZM199.914 104.189V115.576H197.927V104.189H199.914Z" fill="#E5E5E5"/>
<path d="M204.275 156.827V158.696H193.555V156.827H204.275ZM199.914 152.262V163.648H197.927V152.262H199.914Z" fill="#E5E5E5"/>
<path d="M204.275 204.899V206.769H193.555V204.899H204.275ZM199.914 200.334V211.721H197.927V200.334H199.914Z" fill="#E5E5E5"/>
</svg>
