<svg width="239" height="130" viewBox="0 0 239 130" fill="none" xmlns="http://www.w3.org/2000/svg">
<path d="M130.76 51.808C134.144 51.808 136.352 49.456 136.352 46.216C136.352 42.88 134.168 40.648 130.76 40.648H124.016V58H126.368V51.808H130.76ZM130.352 42.76C132.56 42.76 133.88 44.008 133.88 46.192C133.88 48.328 132.584 49.696 130.256 49.696H126.368V42.76H130.352ZM140.936 58V40.336H138.68V58H140.936ZM147.689 58.288C149.585 58.288 151.193 57.448 151.793 56.104L152.033 58H153.953V50.632C153.953 47.464 151.985 45.928 149.081 45.928C146.057 45.928 144.041 47.536 144.041 49.984H146.009C146.009 48.568 147.089 47.728 148.985 47.728C150.569 47.728 151.745 48.424 151.745 50.392V50.728L148.049 51.016C145.289 51.232 143.681 52.576 143.681 54.736C143.681 56.872 145.169 58.288 147.689 58.288ZM148.337 56.536C146.873 56.536 145.961 55.912 145.961 54.664C145.961 53.512 146.777 52.744 148.769 52.552L151.769 52.312V52.936C151.769 55.144 150.473 56.536 148.337 56.536ZM155.668 63.256C156.268 63.4 156.892 63.496 157.636 63.496C159.436 63.496 160.612 62.656 161.404 60.64L166.948 46.264H164.62L161.14 55.72L157.732 46.264H155.356L160.084 58.624L159.676 59.752C159.124 61.24 158.26 61.408 157.18 61.408H155.668V63.256ZM181.432 58C186.568 58 190.024 54.496 190.024 49.336C190.024 44.152 186.52 40.648 181.336 40.648H175.696V58H181.432ZM181.168 42.808C185.128 42.808 187.576 45.304 187.576 49.336C187.576 53.32 185.128 55.816 181.264 55.816H178.048V42.808H181.168ZM197.696 58.288C200.6 58.288 202.568 56.872 203.144 54.352H201.032C200.648 55.696 199.496 56.416 197.744 56.416C195.512 56.416 194.216 55.048 194.048 52.576L203.12 52.552V51.712C203.12 48.232 200.936 45.928 197.6 45.928C194.192 45.928 191.864 48.472 191.864 52.144C191.864 55.792 194.24 58.288 197.696 58.288ZM197.6 47.824C199.592 47.824 200.864 49.12 200.864 51.064H194.096C194.384 49 195.632 47.824 197.6 47.824ZM207.896 58V51.04C207.896 49.168 209.024 47.992 210.728 47.992C212.312 47.992 213.32 49 213.32 50.848V58H215.552V51.04C215.552 49.168 216.68 47.968 218.384 47.968C219.968 47.968 221 49.024 221 50.872V58H223.208V50.32C223.208 47.608 221.576 45.928 218.888 45.928C217.064 45.928 215.648 46.84 215.096 48.304C214.496 46.84 213.2 45.928 211.376 45.928C209.72 45.928 208.472 46.696 207.872 47.8L207.656 46.264H205.64V58H207.896ZM225.567 52.12C225.567 55.744 228.159 58.288 231.687 58.288C235.191 58.288 237.783 55.744 237.783 52.12C237.783 48.496 235.191 45.952 231.687 45.952C228.159 45.952 225.567 48.496 225.567 52.12ZM227.847 52.12C227.847 49.672 229.407 47.968 231.687 47.968C233.943 47.968 235.527 49.672 235.527 52.12C235.527 54.568 233.943 56.272 231.687 56.272C229.407 56.272 227.847 54.568 227.847 52.12Z" fill="#686D77"/>
<g filter="url(#filter0_d_1_103)">
<circle cx="65" cy="50" r="35" fill="#FF3969"/>
</g>
<path d="M77.1154 49.9999L58.9423 60.4921L58.9423 39.5077L77.1154 49.9999Z" fill="white"/>
<defs>
<filter id="filter0_d_1_103" x="0" y="0" width="130" height="130" filterUnits="userSpaceOnUse" color-interpolation-filters="sRGB">
<feFlood flood-opacity="0" result="BackgroundImageFix"/>
<feColorMatrix in="SourceAlpha" type="matrix" values="0 0 0 0 0 0 0 0 0 0 0 0 0 0 0 0 0 0 127 0" result="hardAlpha"/>
<feOffset dy="15"/>
<feGaussianBlur stdDeviation="15"/>
<feColorMatrix type="matrix" values="0 0 0 0 1 0 0 0 0 0.223529 0 0 0 0 0.411765 0 0 0 0.2 0"/>
<feBlend mode="normal" in2="BackgroundImageFix" result="effect1_dropShadow_1_103"/>
<feBlend mode="normal" in="SourceGraphic" in2="effect1_dropShadow_1_103" result="shape"/>
</filter>
</defs>
</svg>
