<svg width="34" height="34" viewBox="0 0 34 34" fill="none" xmlns="http://www.w3.org/2000/svg">
<path d="M30.7291 8.02374C29.7015 8.50288 28.6117 8.81767 27.4959 8.95771C28.6736 8.21578 29.5555 7.04803 29.9774 5.67177C28.8717 6.36426 27.6617 6.85193 26.3998 7.11363C25.5519 6.15758 24.4281 5.5236 23.2032 5.3102C21.9783 5.0968 20.7208 5.31593 19.6262 5.93355C18.5316 6.55117 17.6611 7.53268 17.1501 8.72555C16.6391 9.91842 16.5161 11.2558 16.8003 12.53C14.5593 12.4121 12.3668 11.7987 10.3652 10.7296C8.36354 9.66057 6.5975 8.15973 5.18169 6.32452C4.46162 7.63227 4.24102 9.18005 4.56474 10.6531C4.88847 12.1262 5.73221 13.4141 6.92441 14.2547C6.03005 14.2249 5.1554 13.9701 4.37338 13.5117V13.5849C4.374 14.9574 4.82517 16.2873 5.65029 17.3489C6.47541 18.4105 7.62361 19.1382 8.89992 19.4086C8.07005 19.6456 7.19993 19.6806 6.35535 19.5109C6.71413 20.6902 7.41332 21.7219 8.35527 22.462C9.29721 23.202 10.4349 23.6134 11.6094 23.6388C9.24861 25.5919 6.24862 26.4766 3.26923 26.0981C5.84472 27.8446 8.84295 28.7718 11.9052 28.7688C14.0146 28.7842 16.106 28.3575 18.0577 27.5136C20.0093 26.6696 21.7825 25.4253 23.2741 23.8527C24.7658 22.2801 25.9461 20.4108 26.7466 18.3532C27.5472 16.2956 27.9519 14.0909 27.9372 11.867C27.9372 11.6113 27.9372 11.3557 27.9195 11.1C29.0219 10.2616 29.9739 9.22275 30.7308 8.03226L30.7291 8.02374Z" fill="white"/>
</svg>
