<svg width="26" height="25" viewBox="0 0 26 25" fill="none" xmlns="http://www.w3.org/2000/svg">
<path d="M13.0607 8.31948C10.7687 8.31948 8.89826 10.1899 8.89826 12.4819C8.89826 14.7738 10.7687 16.6443 13.0607 16.6443C15.3526 16.6443 17.2231 14.7738 17.2231 12.4819C17.2231 10.1899 15.3526 8.31948 13.0607 8.31948ZM25.5447 12.4819C25.5447 10.7582 25.5603 9.05016 25.4635 7.32962C25.3667 5.33117 24.9108 3.55755 23.4495 2.09618C21.985 0.631689 20.2145 0.178916 18.216 0.0821158C16.4924 -0.0146841 14.7843 0.000928793 13.0638 0.000928793C11.3401 0.000928793 9.63207 -0.0146841 7.91153 0.0821158C5.91308 0.178916 4.13945 0.634812 2.67809 2.09618C1.2136 3.56067 0.760825 5.33117 0.664025 7.32962C0.567225 9.05328 0.582838 10.7613 0.582838 12.4819C0.582838 14.2024 0.567225 15.9136 0.664025 17.6341C0.760825 19.6326 1.21672 21.4062 2.67809 22.8676C4.14258 24.3321 5.91308 24.7848 7.91153 24.8816C9.63519 24.9784 11.3432 24.9628 13.0638 24.9628C14.7874 24.9628 16.4955 24.9784 18.216 24.8816C20.2145 24.7848 21.9881 24.3289 23.4495 22.8676C24.914 21.4031 25.3667 19.6326 25.4635 17.6341C25.5635 15.9136 25.5447 14.2055 25.5447 12.4819ZM13.0607 18.8863C9.51653 18.8863 6.65625 16.026 6.65625 12.4819C6.65625 8.93775 9.51653 6.07747 13.0607 6.07747C16.6048 6.07747 19.4651 8.93775 19.4651 12.4819C19.4651 16.026 16.6048 18.8863 13.0607 18.8863ZM19.7274 7.31088C18.8999 7.31088 18.2316 6.64265 18.2316 5.81517C18.2316 4.98769 18.8999 4.31945 19.7274 4.31945C20.5548 4.31945 21.2231 4.98769 21.2231 5.81517C21.2233 6.01166 21.1848 6.20627 21.1097 6.38785C21.0346 6.56943 20.9245 6.73441 20.7855 6.87335C20.6466 7.01229 20.4816 7.12245 20.3 7.19753C20.1185 7.27261 19.9239 7.31113 19.7274 7.31088Z" fill="#A6A6A6"/>
</svg>
