<svg width="37" height="25" viewBox="0 0 37 25" fill="none" xmlns="http://www.w3.org/2000/svg">
<path d="M18.7137 0H18.9114C20.7372 0.00666351 29.9884 0.073299 32.4827 0.744093C33.2368 0.948815 33.924 1.34786 34.4755 1.90134C35.027 2.45483 35.4236 3.14337 35.6257 3.89816C35.85 4.7422 36.0078 5.85945 36.1144 7.01224L36.1366 7.24324L36.1854 7.82074L36.2032 8.05175C36.3476 10.0819 36.3654 11.9832 36.3676 12.3986V12.5652C36.3654 12.9961 36.3454 15.0262 36.1854 17.1408L36.1677 17.374L36.1477 17.605C36.0366 18.8755 35.8723 20.1371 35.6257 21.0656C35.4243 21.8207 35.0279 22.5096 34.4762 23.0631C33.9246 23.6167 33.2371 24.0155 32.4827 24.2197C29.9062 24.9127 20.113 24.9615 18.7559 24.9637H18.4405C17.7542 24.9637 14.9155 24.9504 11.9391 24.8482L11.5615 24.8349L11.3683 24.826L10.9885 24.8105L10.6087 24.7949C8.14315 24.6861 5.79537 24.5106 4.71366 24.2174C3.95955 24.0135 3.27227 23.615 2.72066 23.0618C2.16905 22.5087 1.77249 21.8203 1.5707 21.0656C1.32415 20.1394 1.15979 18.8755 1.04873 17.605L1.03096 17.3718L1.01319 17.1408C0.903571 15.6357 0.842827 14.1275 0.831055 12.6185L0.831055 12.3453C0.835497 11.8677 0.853266 10.2174 0.97321 8.39603L0.988758 8.16725L0.995421 8.05175L1.01319 7.82074L1.06206 7.24324L1.08427 7.01224C1.19088 5.85945 1.34859 4.73998 1.57293 3.89816C1.77437 3.14306 2.17078 2.4542 2.72241 1.90062C3.27404 1.34704 3.96151 0.948201 4.71588 0.744093C5.79759 0.455341 8.14537 0.277646 10.6109 0.166588L10.9885 0.15104L11.3705 0.137713L11.5615 0.131049L11.9414 0.115501C14.0553 0.0474769 16.17 0.00971288 18.285 0.00222128H18.7137V0ZM15.0466 7.12996V17.8316L24.28 12.483L15.0466 7.12996Z" fill="#A6A6A6"/>
</svg>
