<svg width="32" height="25" viewBox="0 0 32 25" fill="none" xmlns="http://www.w3.org/2000/svg">
<path d="M31.2966 2.96538C30.1666 3.45284 28.9369 3.80366 27.6703 3.9403C28.9853 3.15902 29.9701 1.92473 30.4399 0.469008C29.2059 1.20311 27.854 1.71787 26.4442 1.99047C25.855 1.36056 25.1424 0.858752 24.3508 0.516305C23.5591 0.173857 22.7054 -0.00188995 21.8429 1.53269e-05C18.3532 1.53269e-05 15.5466 2.82875 15.5466 6.30003C15.5466 6.78749 15.6057 7.27495 15.7017 7.74394C10.4763 7.47067 5.81591 4.9743 2.7176 1.15219C2.15306 2.11645 1.85722 3.21438 1.86086 4.33174C1.86086 6.51791 2.97241 8.44559 4.66743 9.57929C3.66853 9.53995 2.69302 9.26539 1.82024 8.77794V8.85549C1.82024 11.9169 3.98425 14.4539 6.86838 15.0373C6.32685 15.178 5.76978 15.25 5.21028 15.2515C4.80038 15.2515 4.41263 15.2109 4.02118 15.1555C4.81884 17.6519 7.14165 19.4651 9.9076 19.5242C7.74359 21.2192 5.03303 22.2163 2.08982 22.2163C1.56174 22.2163 1.07428 22.1978 0.568359 22.1387C3.36016 23.9297 6.67266 24.9637 10.24 24.9637C21.8208 24.9637 28.1577 15.3697 28.1577 7.0423C28.1577 6.76903 28.1577 6.49576 28.1392 6.22248C29.3653 5.32512 30.4399 4.21357 31.2966 2.96538Z" fill="#A6A6A6"/>
</svg>
