<svg width="34" height="25" viewBox="0 0 34 25" fill="none" xmlns="http://www.w3.org/2000/svg">
<path d="M28.176 2.0704C26.0542 1.11352 23.7798 0.406259 21.4015 0.00409124C21.3803 2.50756e-05 21.3584 0.00264546 21.3388 0.01159C21.3191 0.0205346 21.3028 0.0353609 21.292 0.0540155C21.0007 0.565739 20.6762 1.23278 20.4488 1.75976C17.9264 1.38288 15.3619 1.38288 12.8395 1.75976C12.5862 1.17573 12.3005 0.606266 11.9839 0.0540155C11.9731 0.0351312 11.9569 0.0199696 11.9373 0.0105538C11.9177 0.00113808 11.8958 -0.00208408 11.8743 0.00131755C9.49736 0.403485 7.22304 1.11074 5.09987 2.06901C5.0816 2.07667 5.06612 2.08974 5.05549 2.10646C0.739822 8.45099 -0.443104 14.6388 0.137958 20.749C0.139575 20.764 0.14422 20.7784 0.151611 20.7915C0.159002 20.8047 0.168983 20.8161 0.180948 20.8253C2.69989 22.6592 5.50944 24.0562 8.49194 24.9579C8.51273 24.9643 8.53497 24.9643 8.55575 24.9578C8.57653 24.9514 8.59489 24.9388 8.60843 24.9218C9.25023 24.0635 9.81895 23.1529 10.3086 22.1996C10.3154 22.1865 10.3193 22.1722 10.3201 22.1575C10.3209 22.1428 10.3185 22.1282 10.3131 22.1145C10.3077 22.1008 10.2994 22.0884 10.2889 22.0782C10.2783 22.068 10.2656 22.0602 10.2518 22.0553C9.35592 21.718 8.4879 21.3109 7.65571 20.8377C7.64076 20.8292 7.62816 20.8171 7.61904 20.8025C7.60992 20.7879 7.60458 20.7712 7.60348 20.7541C7.60238 20.7369 7.60556 20.7197 7.61274 20.704C7.61992 20.6884 7.63088 20.6748 7.64462 20.6644C7.81935 20.5354 7.99409 20.4009 8.1605 20.2664C8.17548 20.2543 8.19353 20.2466 8.21262 20.2441C8.23172 20.2417 8.25112 20.2446 8.26867 20.2525C13.7146 22.6988 19.6126 22.6988 24.9947 20.2525C25.0123 20.2441 25.0319 20.2408 25.0512 20.243C25.0706 20.2453 25.089 20.2529 25.1042 20.265C25.2706 20.4009 25.444 20.5354 25.6201 20.6644C25.634 20.6746 25.6451 20.688 25.6525 20.7035C25.6599 20.719 25.6634 20.7361 25.6626 20.7533C25.6617 20.7705 25.6567 20.7872 25.6478 20.8019C25.6389 20.8167 25.6266 20.829 25.6118 20.8377C24.7825 21.3148 23.9199 21.7184 23.0143 22.054C23.0004 22.059 22.9878 22.067 22.9772 22.0773C22.9666 22.0876 22.9583 22.1001 22.9529 22.1139C22.9476 22.1277 22.9452 22.1424 22.946 22.1572C22.9468 22.172 22.9507 22.1864 22.9575 22.1996C23.4567 23.1523 24.0281 24.0592 24.6563 24.9204C24.6694 24.9381 24.6876 24.9513 24.7084 24.9583C24.7292 24.9652 24.7517 24.9656 24.7728 24.9593C27.7604 24.0601 30.5745 22.6624 33.0963 20.8253C33.1086 20.8167 33.1189 20.8055 33.1265 20.7926C33.1342 20.7797 33.139 20.7653 33.1406 20.7504C33.834 13.6861 31.9785 7.54819 28.2189 2.10923C28.2097 2.09155 28.1945 2.07778 28.176 2.0704ZM11.1227 17.0282C9.48349 17.0282 8.13138 15.5458 8.13138 13.7277C8.13138 11.9082 9.45715 10.4272 11.1227 10.4272C12.8007 10.4272 14.1403 11.9207 14.114 13.7277C14.114 15.5472 12.7882 17.0282 11.1227 17.0282ZM22.1823 17.0282C20.5417 17.0282 19.191 15.5458 19.191 13.7277C19.191 11.9082 20.5154 10.4272 22.1823 10.4272C23.8603 10.4272 25.1999 11.9207 25.1736 13.7277C25.1736 15.5472 23.8617 17.0282 22.1823 17.0282Z" fill="#A6A6A6"/>
</svg>
